<svg id="logos" xmlns="http://www.w3.org/2000/svg" viewBox="0 0 256 256"><defs><style>.cls-1{fill:#fff;}</style></defs><title>uncc-white</title><g id="uncc-white"><path class="cls-1" d="M92,107.05H60.5L44.3,81.85h63.9l14.4,90.9Zm9.9,72L65,115.15H15.5l26.1,25.2H61.4Zm-47.7-24.3H34.4l27.9,27H82.1ZM164,107.05h31.5l16.2-25.2H147.8l-14.4,90.9Zm30.6,33.3h19.8l26.1-25.2H191l-36.9,63.9Zm-20.7,41.4h19.8l27.9-27H201.8ZM128,196.25l-49.5-5.5L94.7,207l33.3,5.4,33.3-5.4,16.2-16.2Zm20.7-136.9L128,38.65l-20.7,20.7L128,80.05Z"/></g></svg>